<svg height="512" viewBox="0 0 64 64" width="512" xmlns="http://www.w3.org/2000/svg"><g id="Layer_52" data-name="Layer 52"><path d="m59 32a26.925 26.925 0 0 0 -5.517-16.35 26.9 26.9 0 0 0 -2.7-3.04h-.01a27.01 27.01 0 0 0 -12.143-6.79 27.079 27.079 0 0 0 -16.076.88 27.009 27.009 0 0 0 -13.524 39.49 27.13 27.13 0 0 0 9.819 9.388 26.816 26.816 0 0 0 6.811 2.662 26.979 26.979 0 0 0 18.526-2.152h-.005a27.054 27.054 0 0 0 13.899-17.088 27.019 27.019 0 0 0 .92-7z" fill="#57a4ff"/><path d="m59 32a26.925 26.925 0 0 0 -5.517-16.35 26.9 26.9 0 0 0 -2.7-3.04h-.01a27.068 27.068 0 0 0 -10.009-6.141 26.865 26.865 0 0 1 -.686 10.531 27.054 27.054 0 0 1 -13.9 17.09 26.871 26.871 0 0 1 -12.178 2.91 27.039 27.039 0 0 1 -6.341-.756c-.826-.2-1.631-.448-2.426-.72a26.9 26.9 0 0 0 3.8 10.67 27.13 27.13 0 0 0 9.819 9.388 26.816 26.816 0 0 0 6.808 2.658 26.979 26.979 0 0 0 18.526-2.152h-.005a27.054 27.054 0 0 0 13.899-17.088 27.019 27.019 0 0 0 .92-7z" fill="#2488ff"/><path d="m29 9 4 2 2-3 3.629-2.177a27.073 27.073 0 0 0 -16.075.88l3.446 2.297z" fill="#7ed63e"/><path d="m48 18-2 4-5 1-3 6 6 3 2 5-1 6 2 5 3-6 4-3h4.078a27.061 27.061 0 0 0 .113-13.571 26.907 26.907 0 0 0 -4.708-9.779z" fill="#5eac24"/><path d="m20 47 1-4-3-6-6 4-2.968 5.193a27.13 27.13 0 0 0 9.819 9.388l2.149-3.581z" fill="#5eac24"/><path d="m20.507 13.8a2 2 0 0 0 -2.109-.068l-1.522.879 6.349 7.24 4.69-3.113z" fill="#ff5023"/><path d="m36 47-4 4-4 1-2.341 6.244a26.979 26.979 0 0 0 18.526-2.152l-6.185-3.092z" fill="#4e901e"/><g fill="#ff5023"><path d="m28.876 35.392 1.522-.879a2 2 0 0 0 1-1.86l-.573-8.885-5.041 2.5z"/><path d="m19.813 33.7.647-.373a2 2 0 0 0 .994-1.877l-.16-2.944-3.481 1.73z"/><path d="m16.583 23.008a2 2 0 0 0 -2.123-.077l-.647.373 2 3.464 3.032-2.012z"/></g><path d="m14.715 30.866 3.098-.634-2-3.464-2.098 2.366z" fill="#d80027"/><path d="m25.78 26.273 5.041-2.5.235-.117a3.992 3.992 0 0 0 1.717-1.64l2.227-4.016-4.587-.077a4 4 0 0 0 -2.279.667l-.219.145h.006-.006l-4.69 3.113-7.412 4.92 2 3.464z" fill="#ed1c24"/><path d="m12.305 50.453c-4.117.236-6.96-.614-8.019-2.454-1.134-1.958-.3-5.106 2.341-8.863a42.064 42.064 0 0 1 5.744-6.4 1 1 0 0 0 -1.362-1.464 44.033 44.033 0 0 0 -6.017 6.717c-3.163 4.491-4.006 8.301-2.438 11.011 1.332 2.312 4.228 3.506 8.446 3.506q1.1 0 2.318-.109c.289-.026.6-.074.895-.11-.667-.581-1.305-1.187-1.908-1.834z" fill="#ffcd00"/><path d="m58.473 26.721c.176-.235.358-.472.522-.705 3.168-4.492 4.016-8.3 2.451-11.017s-5.293-3.882-10.766-3.385a50.89 50.89 0 0 0 -13.036 3.3 1 1 0 1 0 .712 1.869 48.894 48.894 0 0 1 12.5-3.179c4.579-.417 7.72.434 8.853 2.392 1.057 1.835.374 4.713-1.879 8.146.129.424.249.852.357 1.285s.2.86.286 1.294z" fill="#ffcd00"/></g></svg>